<svg width="948" height="353" viewBox="0 0 948 353" fill="none" xmlns="http://www.w3.org/2000/svg">
<path fill-rule="evenodd" clip-rule="evenodd" d="M367.143 0C380.105 3.08127 391.972 8.56533 402.741 16.4522C412.884 24.6378 420.229 34.8684 424.774 47.1436C429.965 62.2373 431.376 77.6954 429.007 93.5176C426.161 111.55 420.323 128.548 411.497 144.51C400.021 164.978 385.749 183.354 368.683 199.639C328.553 237.646 281.923 264.97 228.791 281.611C214.017 285.925 198.944 288.556 183.572 289.5C170.929 290.293 158.487 289.139 146.242 286.037C137.552 283.68 129.726 279.704 122.766 274.107C114.107 266.421 109.456 256.767 108.815 245.147C108.617 240.931 108.938 236.761 109.777 232.639C110.853 248.195 118.069 259.9 131.425 267.757C139.724 272.277 148.576 275.098 157.979 276.223C170.443 277.522 182.887 277.33 195.309 275.646C212.799 272.942 229.732 268.259 246.109 261.599C285.169 245.838 320.127 223.836 350.98 195.598C367.711 180.093 381.79 162.549 393.216 142.97C402.466 126.701 408.624 109.319 411.689 90.8237C414.306 74.8006 413.088 59.0862 408.033 43.68C403.94 31.9948 397.236 22.085 387.925 13.9507C381.55 8.48547 374.623 3.83538 367.143 0Z" fill="white"/>
<path fill-rule="evenodd" clip-rule="evenodd" d="M399.663 204.161C399.853 204.128 399.982 204.192 400.047 204.353C387.55 219.963 373.632 234.235 358.292 247.167C321.012 277.811 279.319 300.902 233.217 316.44C213.191 323.061 192.665 327.167 171.641 328.755C156.632 329.809 141.848 328.495 127.288 324.81C126.301 325.734 125.371 326.729 124.498 327.793C117.301 334.039 109.219 335.513 100.252 332.218C91.0238 327.725 86.5673 320.317 86.879 309.994C87.1003 308.246 87.3562 306.515 87.6487 304.798C69.28 288.055 61.583 267.274 64.5579 242.453C66.0877 231.847 69.1664 221.712 73.7942 212.05C79.8151 199.693 87.1272 188.213 95.7304 177.606C120.191 147.625 149.921 124.438 184.919 108.046C198.952 101.594 213.576 97.0389 228.791 94.3835C238.87 92.7583 249.005 92.3094 259.194 93.0365C266.91 93.6981 274.157 95.8788 280.938 99.5789C291.987 106.701 296.957 116.868 295.85 130.078C294.827 138.281 292.262 145.978 288.153 153.169C281.834 163.8 274.008 173.229 264.678 181.455C262.074 200.216 252.165 213.461 234.949 221.19C216.283 227.927 199.416 224.912 184.341 212.146C180.71 208.773 177.662 204.957 175.201 200.697C171.676 206.075 170.073 211.975 170.391 218.4C171.455 225.172 175.08 230.015 181.262 232.928C185.8 234.887 190.547 235.915 195.502 236.007C207.998 236.448 220.186 234.716 232.062 230.811C248.318 225.314 263.456 217.681 277.474 207.913C297.278 194.138 314.308 177.493 328.562 157.979C335.799 147.996 341.316 137.092 345.111 125.267C348.803 113.389 349.573 101.332 347.42 89.0919C344.801 77.0183 339.059 66.7237 330.198 58.208C328.909 58.5087 327.625 58.8936 326.349 59.3625C319.214 60.5871 313.601 58.2461 309.512 52.3391C307.834 49.2857 306.969 46.0145 306.915 42.5255C293.682 36.7035 279.827 33.5928 265.351 33.193C250.379 32.8741 235.562 34.2211 220.902 37.2339C198.567 42.0065 177.016 49.1262 156.247 58.5928C122.141 73.9326 91.0315 93.7522 62.9223 118.052C49.547 130.24 37.1665 143.292 25.7847 157.21C40.5262 137.302 57.5248 119.439 76.7768 103.62C111.409 75.615 149.83 53.9995 192.038 38.7733C210.532 32.1614 229.518 27.6073 248.995 25.1112C261.42 23.6986 273.864 23.5062 286.325 24.5339C295.852 25.523 305.152 27.5434 314.227 30.5953C319.944 27.498 325.653 27.53 331.352 30.6915C335.74 33.6604 338.178 37.7975 338.665 43.1028C361.174 59.3204 370.955 81.3209 368.009 109.104C365.914 124.373 360.911 138.612 353 151.822C343.2 168.045 331.493 182.831 317.883 196.175C297.284 216.253 273.937 232.416 247.841 244.666C232.233 251.772 215.941 256.583 198.965 259.098C188.305 260.56 177.656 260.497 167.023 258.905C160.027 257.56 153.677 254.801 147.973 250.631C141.088 244.849 137.336 237.44 136.717 228.406C136.522 220.398 138.127 212.764 141.527 205.508C146.245 195.748 152.337 186.96 159.807 179.146C162.773 176.019 165.884 173.069 169.14 170.294C172.199 152.647 181.821 140.044 198.003 132.483C214.69 126.026 230.403 127.821 245.147 137.871C250.298 141.61 254.499 146.195 257.751 151.629C261.08 146.195 262.555 140.294 262.176 133.926C260.937 127.299 257.248 122.585 251.112 119.783C246.985 118.075 242.688 117.113 238.22 116.897C228.327 116.229 218.579 117.128 208.971 119.591C195.504 123.055 182.74 128.25 170.679 135.177C144.762 150.03 122.858 169.498 104.967 193.578C98.6841 202.291 93.4887 211.656 89.3805 221.671C84.9875 232.888 83.2557 244.497 84.1851 256.5C85.5474 269.835 90.6466 281.476 99.4827 291.425C108.047 288.05 116.002 289.141 123.343 294.696C128.671 299.487 131.365 305.483 131.425 312.687C144.864 317.627 158.751 319.936 173.084 319.615C188.334 319.468 203.376 317.64 218.208 314.131C249.482 306.38 279.115 294.579 307.107 278.725C326.842 267.641 345.444 254.941 362.91 240.625C376.091 229.401 388.34 217.246 399.663 204.161Z" fill="white"/>
<path fill-rule="evenodd" clip-rule="evenodd" d="M247.456 60.9981C260.448 60.2578 273.212 61.5728 285.748 64.9427C294.305 67.3282 301.939 71.3691 308.647 77.0654C318.731 86.6615 323.124 98.432 321.828 112.375C321.712 114.318 321.454 116.243 321.058 118.148C319.607 100.862 311.108 88.4513 295.562 80.9138C285.144 76.3303 274.241 73.8931 262.85 73.6018C248.422 73.124 234.183 74.535 220.132 77.8351C207.34 80.8378 194.896 84.8787 182.802 89.9577C143.215 106.273 107.936 129.043 76.9692 158.268C61.8409 172.68 48.9813 188.811 38.3884 206.662C28.3689 223.634 21.6976 241.851 18.3764 261.31C16.4445 274.324 16.7658 287.28 19.3385 300.18C21.4263 309.532 25.0823 318.191 30.3066 326.157C37.0183 335.307 45.1963 342.844 54.8406 348.767C57.2786 350.177 59.7146 351.59 62.1526 353C21.4032 342.511 0.685026 316.149 0 273.914C0.317498 258.341 3.30006 243.302 8.94767 228.791C15.111 213.091 23.1293 198.467 33.0006 184.919C44.6248 169.122 57.8693 154.722 72.7359 141.72C108.577 110.51 149.114 87.0995 194.347 71.4851C211.635 65.7684 229.337 62.2727 247.456 60.9981Z" fill="white"/>
<path fill-rule="evenodd" clip-rule="evenodd" d="M25.7847 157.21C25.4749 157.893 25.0266 158.47 24.4377 158.941C24.7475 158.258 25.1959 157.681 25.7847 157.21Z" fill="#444444"/>
<path fill-rule="evenodd" clip-rule="evenodd" d="M24.4378 158.941C24.4012 159.269 24.2415 159.524 23.9567 159.711C23.9028 159.344 24.0626 159.086 24.4378 158.941Z" fill="#646464"/>
<path fill-rule="evenodd" clip-rule="evenodd" d="M408.129 193.962C408.166 193.635 408.325 193.379 408.61 193.193C408.664 193.56 408.504 193.818 408.129 193.962Z" fill="#636363"/>
<path fill-rule="evenodd" clip-rule="evenodd" d="M408.129 193.962C408.018 194.395 407.762 194.717 407.36 194.925C407.471 194.492 407.727 194.17 408.129 193.962Z" fill="#575757"/>
<path fill-rule="evenodd" clip-rule="evenodd" d="M407.36 194.925C407.313 195.29 407.121 195.548 406.782 195.694C406.829 195.329 407.021 195.071 407.36 194.925Z" fill="#373737"/>
<path fill-rule="evenodd" clip-rule="evenodd" d="M406.782 195.694C404.756 198.746 402.512 201.632 400.047 204.353C399.982 204.192 399.853 204.128 399.663 204.161C402.037 201.33 404.412 198.509 406.782 195.694Z" fill="#1B1B1B"/>
<path d="M513.624 141.792C502.957 141.792 494.467 138.72 488.152 132.576C481.837 126.347 478.68 117.301 478.68 105.44V84.96C478.68 73.0987 481.837 64.096 488.152 57.952C494.467 51.7227 502.957 48.608 513.624 48.608C524.205 48.608 532.312 51.552 537.944 57.44C543.661 63.328 546.52 71.392 546.52 81.632V82.272H535.896V81.248C535.896 74.5067 534.061 69.0027 530.392 64.736C526.808 60.384 521.219 58.208 513.624 58.208C506.029 58.208 500.099 60.5547 495.832 65.248C491.565 69.856 489.432 76.3413 489.432 84.704V105.696C489.432 114.059 491.565 120.587 495.832 125.28C500.099 129.888 506.029 132.192 513.624 132.192C521.219 132.192 526.808 130.059 530.392 125.792C534.061 121.44 535.896 115.893 535.896 109.152V107.104H546.52V108.768C546.52 119.008 543.661 127.072 537.944 132.96C532.312 138.848 524.205 141.792 513.624 141.792ZM563.749 140V50.4H573.861V140H563.749ZM619.06 141.152C614.537 141.152 610.356 140.171 606.516 138.208C602.761 136.245 599.775 133.344 597.556 129.504C595.423 125.579 594.356 120.843 594.356 115.296V77.408H604.468V114.528C604.468 120.757 606.004 125.28 609.076 128.096C612.233 130.912 616.457 132.32 621.748 132.32C627.721 132.32 632.628 130.357 636.468 126.432C640.308 122.507 642.228 116.661 642.228 108.896V77.408H652.34V140H642.484V129.376H640.692C639.327 132.363 636.98 135.093 633.652 137.568C630.324 139.957 625.46 141.152 619.06 141.152ZM698.715 141.792C690.95 141.792 684.379 140 679.003 136.416C673.712 132.832 670.512 127.157 669.403 119.392L679.003 117.216C679.686 121.312 680.966 124.555 682.843 126.944C684.72 129.248 687.024 130.912 689.755 131.936C692.571 132.875 695.558 133.344 698.715 133.344C703.408 133.344 707.12 132.405 709.851 130.528C712.582 128.651 713.947 126.133 713.947 122.976C713.947 119.733 712.624 117.472 709.979 116.192C707.419 114.827 703.878 113.717 699.355 112.864L694.107 111.968C690.096 111.285 686.427 110.219 683.099 108.768C679.771 107.317 677.126 105.355 675.163 102.88C673.2 100.405 672.219 97.2907 672.219 93.536C672.219 87.904 674.395 83.5093 678.747 80.352C683.099 77.1947 688.859 75.616 696.027 75.616C703.11 75.616 708.827 77.2373 713.179 80.48C717.616 83.6373 720.475 88.1173 721.755 93.92L712.283 96.352C711.515 91.8293 709.68 88.672 706.779 86.88C703.878 85.0027 700.294 84.064 696.027 84.064C691.76 84.064 688.39 84.8747 685.915 86.496C683.44 88.032 682.203 90.336 682.203 93.408C682.203 96.3947 683.355 98.6133 685.659 100.064C688.048 101.429 691.206 102.453 695.131 103.136L700.379 104.032C704.816 104.8 708.784 105.867 712.283 107.232C715.867 108.512 718.683 110.389 720.731 112.864C722.864 115.339 723.931 118.581 723.931 122.592C723.931 128.736 721.627 133.472 717.019 136.8C712.496 140.128 706.395 141.792 698.715 141.792ZM762.664 140C759.08 140 756.307 139.019 754.344 137.056C752.467 135.093 751.528 132.405 751.528 128.992V86.24H732.712V77.408H751.528V55.136H761.64V77.408H782.12V86.24H761.64V127.456C761.64 130.016 762.877 131.296 765.352 131.296H779.304V140H762.664ZM824.921 141.792C818.606 141.792 813.06 140.469 808.281 137.824C803.502 135.093 799.79 131.296 797.145 126.432C794.5 121.568 793.177 115.936 793.177 109.536V108C793.177 101.515 794.5 95.84 797.145 90.976C799.79 86.112 803.46 82.3573 808.153 79.712C812.846 76.9813 818.222 75.616 824.281 75.616C830.169 75.616 835.374 76.896 839.897 79.456C844.42 81.9307 847.961 85.5147 850.521 90.208C853.081 94.9013 854.361 100.405 854.361 106.72V111.328H803.289C803.545 118.069 805.721 123.36 809.817 127.2C813.913 130.955 819.033 132.832 825.177 132.832C830.553 132.832 834.692 131.595 837.593 129.12C840.494 126.645 842.713 123.701 844.249 120.288L852.953 124.512C851.673 127.157 849.881 129.803 847.577 132.448C845.358 135.093 842.414 137.312 838.745 139.104C835.161 140.896 830.553 141.792 824.921 141.792ZM803.417 103.008H844.121C843.78 97.2053 841.774 92.6827 838.105 89.44C834.521 86.1973 829.913 84.576 824.281 84.576C818.564 84.576 813.87 86.1973 810.201 89.44C806.532 92.6827 804.27 97.2053 803.417 103.008ZM871.999 140V77.408H881.855V85.088H883.647C884.756 82.3573 886.463 80.352 888.767 79.072C891.071 77.792 894.1 77.152 897.855 77.152H905.279V86.368H897.215C892.692 86.368 889.023 87.648 886.207 90.208C883.476 92.6827 882.111 96.5653 882.111 101.856V140H871.999ZM511.064 304.792C504.579 304.792 498.776 303.64 493.656 301.336C488.536 299.032 484.483 295.576 481.496 290.968C478.595 286.275 477.144 280.429 477.144 273.432V270.744H487.768V273.432C487.768 280.856 489.944 286.403 494.296 290.072C498.648 293.656 504.237 295.448 511.064 295.448C518.061 295.448 523.395 293.869 527.064 290.712C530.733 287.555 532.568 283.587 532.568 278.808C532.568 275.48 531.715 272.835 530.008 270.872C528.387 268.909 526.083 267.331 523.096 266.136C520.109 264.856 516.611 263.747 512.6 262.808L505.944 261.144C500.739 259.779 496.131 258.115 492.12 256.152C488.109 254.189 484.952 251.629 482.648 248.472C480.429 245.229 479.32 241.091 479.32 236.056C479.32 231.021 480.557 226.669 483.032 223C485.592 219.331 489.133 216.515 493.656 214.552C498.264 212.589 503.555 211.608 509.528 211.608C515.587 211.608 521.005 212.675 525.784 214.808C530.648 216.856 534.445 219.928 537.176 224.024C539.992 228.035 541.4 233.112 541.4 239.256V244.632H530.776V239.256C530.776 234.904 529.837 231.405 527.96 228.76C526.168 226.115 523.651 224.152 520.408 222.872C517.251 221.592 513.624 220.952 509.528 220.952C503.64 220.952 498.904 222.275 495.32 224.92C491.736 227.48 489.944 231.149 489.944 235.928C489.944 239.085 490.712 241.645 492.248 243.608C493.784 245.571 495.96 247.192 498.776 248.472C501.592 249.667 504.963 250.733 508.888 251.672L515.544 253.336C520.749 254.445 525.4 255.981 529.496 257.944C533.677 259.821 537.005 262.424 539.48 265.752C541.955 268.995 543.192 273.261 543.192 278.552C543.192 283.843 541.869 288.451 539.224 292.376C536.579 296.301 532.824 299.373 527.96 301.592C523.181 303.725 517.549 304.792 511.064 304.792ZM583.164 303C579.58 303 576.807 302.019 574.844 300.056C572.967 298.093 572.028 295.405 572.028 291.992V249.24H553.212V240.408H572.028V218.136H582.14V240.408H602.62V249.24H582.14V290.456C582.14 293.016 583.377 294.296 585.852 294.296H599.804V303H583.164ZM642.935 304.152C638.412 304.152 634.231 303.171 630.391 301.208C626.636 299.245 623.65 296.344 621.431 292.504C619.298 288.579 618.231 283.843 618.231 278.296V240.408H628.343V277.528C628.343 283.757 629.879 288.28 632.951 291.096C636.108 293.912 640.332 295.32 645.623 295.32C651.596 295.32 656.503 293.357 660.343 289.432C664.183 285.507 666.103 279.661 666.103 271.896V240.408H676.215V303H666.359V292.376H664.567C663.202 295.363 660.855 298.093 657.527 300.568C654.199 302.957 649.335 304.152 642.935 304.152ZM723.87 304.792C718.494 304.792 713.545 303.512 709.022 300.952C704.499 298.392 700.915 294.68 698.27 289.816C695.625 284.952 694.302 279.192 694.302 272.536V270.872C694.302 264.216 695.625 258.499 698.27 253.72C700.915 248.856 704.457 245.144 708.894 242.584C713.417 239.939 718.409 238.616 723.87 238.616C728.222 238.616 731.891 239.213 734.878 240.408C737.95 241.517 740.425 242.968 742.302 244.76C744.179 246.467 745.63 248.301 746.654 250.264H748.446V213.4H758.558V303H748.702V292.632H746.91C745.203 295.789 742.558 298.605 738.974 301.08C735.39 303.555 730.355 304.792 723.87 304.792ZM726.558 295.832C733.043 295.832 738.291 293.784 742.302 289.688C746.398 285.507 748.446 279.704 748.446 272.28V271.128C748.446 263.704 746.398 257.944 742.302 253.848C738.291 249.667 733.043 247.576 726.558 247.576C720.158 247.576 714.867 249.667 710.686 253.848C706.59 257.944 704.542 263.704 704.542 271.128V272.28C704.542 279.704 706.59 285.507 710.686 289.688C714.867 293.784 720.158 295.832 726.558 295.832ZM779.749 303V240.408H789.861V303H779.749ZM784.869 230.68C782.65 230.68 780.773 229.955 779.237 228.504C777.786 227.053 777.061 225.219 777.061 223C777.061 220.696 777.786 218.819 779.237 217.368C780.773 215.917 782.65 215.192 784.869 215.192C787.088 215.192 788.922 215.917 790.373 217.368C791.824 218.819 792.549 220.696 792.549 223C792.549 225.219 791.824 227.053 790.373 228.504C788.922 229.955 787.088 230.68 784.869 230.68ZM840.052 304.792C833.737 304.792 828.148 303.469 823.284 300.824C818.505 298.179 814.751 294.467 812.02 289.688C809.375 284.824 808.052 279.107 808.052 272.536V270.872C808.052 264.387 809.375 258.712 812.02 253.848C814.751 248.984 818.505 245.229 823.284 242.584C828.148 239.939 833.737 238.616 840.052 238.616C846.367 238.616 851.913 239.939 856.692 242.584C861.556 245.229 865.311 248.984 867.956 253.848C870.687 258.712 872.052 264.387 872.052 270.872V272.536C872.052 279.107 870.687 284.824 867.956 289.688C865.311 294.467 861.556 298.179 856.692 300.824C851.913 303.469 846.367 304.792 840.052 304.792ZM840.052 295.704C846.708 295.704 851.999 293.613 855.924 289.432C859.935 285.165 861.94 279.448 861.94 272.28V271.128C861.94 263.96 859.935 258.285 855.924 254.104C851.999 249.837 846.708 247.704 840.052 247.704C833.481 247.704 828.191 249.837 824.18 254.104C820.169 258.285 818.164 263.96 818.164 271.128V272.28C818.164 279.448 820.169 285.165 824.18 289.432C828.191 293.613 833.481 295.704 840.052 295.704ZM915.465 304.792C907.7 304.792 901.129 303 895.753 299.416C890.462 295.832 887.262 290.157 886.153 282.392L895.753 280.216C896.436 284.312 897.716 287.555 899.593 289.944C901.47 292.248 903.774 293.912 906.505 294.936C909.321 295.875 912.308 296.344 915.465 296.344C920.158 296.344 923.87 295.405 926.601 293.528C929.332 291.651 930.697 289.133 930.697 285.976C930.697 282.733 929.374 280.472 926.729 279.192C924.169 277.827 920.628 276.717 916.105 275.864L910.857 274.968C906.846 274.285 903.177 273.219 899.849 271.768C896.521 270.317 893.876 268.355 891.913 265.88C889.95 263.405 888.969 260.291 888.969 256.536C888.969 250.904 891.145 246.509 895.497 243.352C899.849 240.195 905.609 238.616 912.777 238.616C919.86 238.616 925.577 240.237 929.929 243.48C934.366 246.637 937.225 251.117 938.505 256.92L929.033 259.352C928.265 254.829 926.43 251.672 923.529 249.88C920.628 248.003 917.044 247.064 912.777 247.064C908.51 247.064 905.14 247.875 902.665 249.496C900.19 251.032 898.953 253.336 898.953 256.408C898.953 259.395 900.105 261.613 902.409 263.064C904.798 264.429 907.956 265.453 911.881 266.136L917.129 267.032C921.566 267.8 925.534 268.867 929.033 270.232C932.617 271.512 935.433 273.389 937.481 275.864C939.614 278.339 940.681 281.581 940.681 285.592C940.681 291.736 938.377 296.472 933.769 299.8C929.246 303.128 923.145 304.792 915.465 304.792Z" fill="white"/>
</svg>
