<svg width="800" height="800" viewBox="0 0 800 800" fill="none" xmlns="http://www.w3.org/2000/svg">
<path fill-rule="evenodd" clip-rule="evenodd" d="M792.89 564.856C777.257 584.627 738.975 598.726 738.975 598.726L454.159 701.306V625.659L663.763 550.774C687.548 542.225 691.201 530.148 671.868 523.804C652.571 517.443 617.625 519.266 593.823 527.851L454.159 577.173V498.661L462.211 495.93C462.211 495.93 502.567 481.609 559.318 475.305C616.066 469.037 685.548 476.16 740.098 496.895C801.572 516.374 808.494 545.086 792.886 564.856H792.89ZM481.274 436.039V242.574C481.274 219.854 477.092 198.941 455.832 193.018C439.549 187.787 429.448 202.943 429.448 225.647V710.13L299.145 668.661V91C354.547 101.311 435.266 125.692 478.656 140.358C589.007 178.348 626.421 225.631 626.421 332.166C626.421 436.003 562.498 475.358 481.274 436.039ZM60.0504 617.751C-3.06058 599.929 -13.5616 562.798 15.202 541.407C41.7878 521.657 86.9999 506.788 86.9999 506.788L273.832 440.175V516.118L139.384 564.362C115.634 572.906 111.982 585.004 131.283 591.344C150.596 597.685 185.557 595.882 209.343 587.317L273.832 563.852V631.793C269.743 632.522 265.185 633.252 260.967 633.961C196.458 644.531 127.755 640.119 60.0504 617.747V617.751ZM751.383 647.832C759.544 647.832 767.193 651.001 772.954 656.851C775.797 659.68 778.05 663.047 779.584 666.757C781.119 670.467 781.903 674.445 781.892 678.461C781.906 682.477 781.123 686.456 779.589 690.167C778.055 693.877 775.799 697.243 772.954 700.071C770.135 702.931 766.775 705.198 763.071 706.741C759.367 708.283 755.393 709.069 751.383 709.053C747.373 709.067 743.401 708.28 739.698 706.738C735.995 705.195 732.635 702.929 729.815 700.071C726.972 697.243 724.719 693.875 723.187 690.165C721.656 686.455 720.876 682.476 720.894 678.461C720.894 661.587 734.558 647.832 751.383 647.832ZM726.017 678.461C726.017 685.255 728.651 691.652 733.451 696.425C735.794 698.804 738.587 700.69 741.666 701.973C744.745 703.256 748.048 703.909 751.383 703.895C758.11 703.893 764.561 701.213 769.318 696.444C774.075 691.674 776.749 685.206 776.752 678.461C776.752 671.646 774.134 665.253 769.318 660.457C766.974 658.08 764.18 656.196 761.1 654.917C758.02 653.637 754.716 652.988 751.383 653.006C748.049 652.988 744.745 653.639 741.665 654.919C738.585 656.199 735.791 658.083 733.447 660.461C731.081 662.817 729.205 665.622 727.93 668.713C726.654 671.803 726.004 675.116 726.017 678.461ZM760.595 661.972C763.94 663.446 765.629 666.29 765.629 670.334C765.629 672.412 765.193 674.158 764.304 675.528C763.665 676.512 762.76 677.31 761.742 678.003C762.542 678.477 763.249 679.044 763.775 679.701C764.502 680.645 764.922 682.16 764.975 684.218L765.136 688.573C765.193 689.74 765.265 690.631 765.447 691.178C765.629 691.98 765.973 692.491 766.413 692.653L766.865 692.872V694.857H760.288L760.07 694.476C759.873 694.052 759.726 693.606 759.633 693.147C759.498 692.266 759.42 691.377 759.399 690.485L759.124 685.073C759.051 683.197 758.417 682.034 757.217 681.41C756.47 681.066 755.237 680.904 753.564 680.904H744.312V694.857H738.409V660.805H754.183C756.76 660.805 758.926 661.186 760.595 661.972ZM744.312 675.69H753.726C755.617 675.69 757.124 675.345 758.199 674.636C759.181 673.923 759.653 672.631 759.653 670.751C759.653 668.713 758.979 667.38 757.56 666.671C756.781 666.291 755.69 666.072 754.308 666.072H744.316V675.69H744.312Z" fill="white"/>
</svg>
