<svg width="800" height="800" viewBox="0 0 800 800" fill="none" xmlns="http://www.w3.org/2000/svg">
<path d="M452.55 303.225C452.55 264.125 484.25 232.425 523.325 232.425C562.4 232.425 594.1 264.125 594.1 303.2C594.1 342.3 562.425 373.975 523.325 373.975C523.325 373.975 523.325 373.975 523.3 373.975C484.225 373.975 452.55 342.3 452.55 303.225C452.55 303.225 452.525 303.225 452.525 303.2L452.55 303.225ZM617.275 303.375C617.275 251.35 575.1 209.175 523.075 209.175C471.05 209.175 428.875 251.35 428.875 303.375C428.875 355.4 471.05 397.575 523.075 397.575C575.075 397.5 617.2 355.35 617.275 303.375ZM260.675 594L214.65 574.95C227.75 601.9 254.925 620.15 286.35 620.15C319.275 620.15 347.55 600.125 359.6 571.575L359.8 571.05C363.675 562 365.95 551.45 365.95 540.4C365.95 496.475 330.35 460.875 286.425 460.875C276.3 460.875 266.625 462.775 257.725 466.2L258.275 466.025L305.85 485.7C327.15 494.8 341.825 515.6 341.825 539.8C341.825 572.2 315.55 598.475 283.15 598.475C275.05 598.475 267.35 596.825 260.325 593.875L260.7 594.025L260.675 594ZM399.35 25.1001C202.925 25.1251 41.8251 176.25 25.9001 368.55L25.8 369.9L226.75 452.95C243.45 441.4 264.125 434.525 286.425 434.525C286.45 434.525 286.475 434.525 286.475 434.525C288.45 434.525 290.375 434.65 292.35 434.725L381.725 305.325V303.475C381.8 225.475 445.05 162.275 523.05 162.275C601.1 162.275 664.375 225.55 664.375 303.6C664.375 381.65 601.1 444.925 523.05 444.925H519.775L392.425 535.875C392.425 537.5 392.55 539.15 392.55 540.85C392.55 540.875 392.55 540.9 392.55 540.925C392.55 599.475 345.075 646.95 286.525 646.95C235.35 646.95 192.625 610.675 182.7 562.45L182.575 561.775L38.7 502.2C84.725 660.825 228.725 774.825 399.325 774.825C606.35 774.825 774.175 607 774.175 399.975C774.175 192.95 606.35 25.1251 399.325 25.1251L399.35 25.1001Z" fill="white"/>
</svg>
