<svg width="800" height="800" viewBox="0 0 800 800" fill="none" xmlns="http://www.w3.org/2000/svg">
<g clip-path="url(#clip0_7_22)">
<path d="M171.447 2.62202C91.7582 16.8669 27.6428 75.8343 7.4307 153.353C0.141096 181.346 -0.355922 197.744 0.472442 414.896C0.96946 614.325 1.13513 618.963 4.44859 634.368C22.8383 717.353 81.8178 776.486 165.648 796.031C176.583 798.515 190.499 799.012 280.128 799.509C372.905 800.172 382.514 800.006 384.999 797.522C387.484 795.037 387.65 763.069 387.65 400.652C387.65 131.986 387.153 5.43787 385.993 3.11893C384.336 0.137437 381.52 -0.0282014 284.436 0.137437C205.575 0.303076 181.884 0.799991 171.447 2.62202ZM321.381 400.155V735.738L253.952 734.91C191.825 734.248 185.198 733.916 172.772 730.769C119.426 717.021 79.8297 675.943 68.7296 622.442C65.0848 605.712 65.0848 193.603 68.564 177.205C78.5043 130.661 110.811 92.0668 154.382 74.6748C176.251 65.896 186.357 64.9021 257.265 64.7365L321.381 64.5708V400.155Z" fill="white"/>
<path d="M185.695 165.794C175.257 167.782 159.353 175.732 150.903 183.186C133.508 198.259 124.893 219.626 126.218 244.803C126.881 257.889 127.709 261.367 133.011 271.968C140.797 288.035 152.56 299.795 168.63 307.746C179.73 313.212 182.547 313.875 196.96 314.372C210.049 314.869 214.687 314.372 223.468 311.39C259.419 299.299 281.122 264.349 274.992 228.571C267.868 186.002 227.444 157.512 185.695 165.794Z" fill="white"/>
<path d="M468.332 1.14827C467.67 1.64518 467.173 181.197 467.173 400.172C467.173 761.429 467.338 798.035 469.823 799.029C474.297 800.686 602.859 800.023 618.763 798.367C686.027 790.747 745.337 749.835 777.644 689.045C781.785 681.26 787.253 668.175 790.069 660.059C800.506 628.918 800.175 637.2 800.175 399.178C800.175 209.19 799.844 180.866 797.524 168.775C781.123 82.4768 715.351 17.3808 628.869 2.47338C617.272 0.485713 599.38 -0.0112031 541.725 -0.0112031C501.964 -0.0112031 468.829 0.485713 468.332 1.14827ZM645.271 361.909C671.116 368.7 692.322 388.411 700.937 413.588C706.404 429.158 706.239 452.016 700.771 466.261C690.665 492.432 670.785 510.818 645.271 517.609C603.853 528.376 559.784 503.364 547.69 462.286C544.045 449.698 544.211 428.496 548.352 415.576C560.778 374.995 603.853 351.143 645.271 361.909Z" fill="white"/>
</g>
<defs>
<clipPath id="clip0_7_22">
<rect width="800" height="800" fill="white"/>
</clipPath>
</defs>
</svg>
