<svg width="800" height="800" viewBox="0 0 800 800" fill="none" xmlns="http://www.w3.org/2000/svg">
<g clip-path="url(#clip0_7_19)">
<path d="M360.111 798.355C298.488 792.456 236.098 770.338 182.503 735.39C137.592 706.104 127.45 694.065 127.45 670.039C127.45 621.78 180.542 537.254 271.378 440.896C322.966 386.171 394.826 322.025 402.597 323.762C417.703 327.138 538.485 444.889 583.701 500.319C655.202 587.972 688.073 659.741 671.373 691.737C658.679 716.06 579.911 763.599 522.042 781.862C474.348 796.914 411.71 803.294 360.111 798.355ZM66.7927 619.863C29.4726 562.641 10.6172 506.306 1.51371 424.826C-1.49228 397.921 -0.415091 382.532 8.33953 327.309C19.2509 258.482 58.4684 178.857 105.592 129.855C125.662 108.985 127.455 108.476 151.919 116.713C181.628 126.716 213.355 148.615 262.559 193.083L291.267 219.027L275.59 238.276C202.818 327.628 125.997 454.281 97.0454 532.638C81.3062 575.236 74.9579 617.997 81.7301 635.799C86.3023 647.818 82.1026 643.338 66.7927 619.863ZM721.876 629.596C725.563 611.608 720.9 578.572 709.971 545.252C686.303 473.093 607.192 338.852 534.548 247.581L511.679 218.849L536.42 196.144C568.724 166.498 591.153 148.746 615.353 133.671C634.45 121.775 661.74 111.244 673.47 111.244C680.702 111.244 706.163 137.652 726.717 166.472C758.55 211.108 781.969 265.217 793.834 321.545C801.5 357.94 802.139 435.844 795.069 472.15C789.267 501.945 777.016 540.593 765.064 566.804C756.109 586.444 733.837 624.587 724.076 636.999C719.058 643.38 719.054 643.366 721.876 629.596ZM366.709 97.618C333.191 80.6062 281.482 62.3451 252.919 57.4321C242.905 55.7098 225.823 54.7492 214.959 55.2976C191.392 56.487 192.444 55.2553 230.251 37.4032C261.683 22.5614 287.901 13.8337 323.493 6.36455C363.531 -2.03775 438.789 -2.13636 478.189 6.16185C520.745 15.1246 570.857 33.7625 599.094 51.13L607.486 56.2918L588.231 55.32C549.968 53.3888 494.204 68.8387 434.335 97.9585C416.276 106.742 400.566 113.757 399.423 113.547C398.28 113.338 383.559 106.17 366.709 97.618Z" fill="white"/>
</g>
<defs>
<clipPath id="clip0_7_19">
<rect width="800" height="800" fill="white"/>
</clipPath>
</defs>
</svg>
